# xmcd
#
# Track frame offsets: 
#        150
#        25210
#        58285
#        76435
#        107710
#        130960
#        159910
#        173710
#        209110
#        240010
#        266485
#
# Disc length: 3830 seconds
#
# Revision: 1
# Processed by: cddbd v1.5.2PL0 Copyright (c) Steve Scherf et al.
# Submitted via: ExactAudioCopy v0.99pb5
#
DISCID=900ef40b
DTITLE=Various Artist - The Ultimate Demonstration Disc Vol. 2
DYEAR=2008
DGENRE=Jazz
TTITLE0=Jackson and Hazeltine/In a Mellow Tone
TTITLE1=Jon Faddis/Speak Like a Child
TTITLE2=Persuasions/Angel Of Harlem
TTITLE3=Body Acoustic/Club Descarga
TTITLE4=I Ching/Young Girl's Heart
TTITLE5=Jimmy Cobb Quartet/My Foolish Heart
TTITLE6=Valerie Joyce/Little Wing
TTITLE7=Coryell and Bailey and White/Mysterioso
TTITLE8=Rachel Z/Imagine
TTITLE9=David Chesky/Concerto For Bassoon And Orchestra Movement 3
TTITLE10=Billy Burnette/Tear it Up
EXTD=YEAR: 2008
EXTT0=
EXTT1=
EXTT2=
EXTT3=
EXTT4=
EXTT5=
EXTT6=
EXTT7=
EXTT8=
EXTT9=
EXTT10=
PLAYORDER=
